<svg width="28" height="28" viewBox="0 0 28 28" fill="none" xmlns="http://www.w3.org/2000/svg">
<g clip-path="url(#clip0_2_482)">
<path d="M0 0H28V28H0V0Z" fill="#F0DB4F"/>
<path d="M25.7084 21.322C25.5034 20.0445 24.6703 18.9719 22.203 17.9711C21.346 17.5772 20.3905 17.2951 20.1057 16.6456C20.0046 16.2677 19.9913 16.0547 20.0551 15.8258C20.2388 15.0833 21.1251 14.8517 21.8278 15.0646C22.2802 15.2163 22.7087 15.565 22.9669 16.1213C24.1753 15.3388 24.1726 15.3441 25.0163 14.8065C24.7076 14.3274 24.5426 14.1065 24.3403 13.9015C23.6137 13.0898 22.6236 12.6719 21.0399 12.7038C20.7658 12.7384 20.489 12.7757 20.2148 12.8103C19.4244 13.0099 18.6711 13.4251 18.2293 13.9814C16.9038 15.4852 17.2817 18.1175 18.8947 19.2008C20.4836 20.3932 22.8179 20.6647 23.116 21.7799C23.4061 23.1453 22.1126 23.5871 20.827 23.4301C19.8795 23.2331 19.3525 22.7514 18.7829 21.8757C17.7342 22.4825 17.7342 22.4825 16.6563 23.1027C16.9118 23.6616 17.1806 23.9145 17.6091 24.3989C19.6373 26.4563 24.7129 26.3552 25.6232 23.2411C25.6605 23.1346 25.9053 22.4213 25.7084 21.322ZM15.2217 12.8688H12.6027C12.6027 15.1312 12.592 17.3776 12.592 19.6399C12.592 21.0798 12.6666 22.4 12.4323 22.8046C12.0491 23.6003 11.0563 23.5019 10.6038 23.3475C10.1434 23.1213 9.90915 22.7992 9.63767 22.3441C9.56314 22.2137 9.50725 22.1125 9.48859 22.1046C8.77797 22.5384 8.06996 22.9749 7.35931 23.4087C7.71333 24.1354 8.23498 24.7662 8.90304 25.176C9.90114 25.7749 11.2426 25.9585 12.6453 25.6365C13.5582 25.3703 14.346 24.8194 14.7586 23.981C15.3548 22.8817 15.227 21.5509 15.2217 20.0791C15.235 17.6783 15.2217 15.2776 15.2217 12.8688Z" fill="#323330"/>
</g>
<defs>
<clipPath id="clip0_2_482">
<rect width="28" height="28" fill="white"/>
</clipPath>
</defs>
</svg>
