<svg width="28" height="25" viewBox="0 0 28 25" fill="none" xmlns="http://www.w3.org/2000/svg">
<path d="M28 12.5028C28 10.7005 25.6771 8.99256 22.1158 7.93339C22.9376 4.40653 22.5724 1.60058 20.9629 0.702225C20.5919 0.491501 20.1582 0.391684 19.6845 0.391684V1.6283C19.947 1.6283 20.1582 1.67821 20.3351 1.77248C21.1113 2.20502 21.448 3.852 21.1855 5.97033C21.1227 6.49159 21.02 7.04059 20.8944 7.60067C19.7758 7.33449 18.5544 7.12931 17.2703 6.99622C16.4998 5.97033 15.7008 5.03871 14.896 4.22354C16.7566 2.54329 18.5031 1.62276 19.6902 1.62276V0.386139C18.1207 0.386139 16.066 1.47303 13.9886 3.35846C11.9111 1.48412 9.8565 0.40832 8.287 0.40832V1.64494C9.46841 1.64494 11.2205 2.55993 13.0811 4.22908C12.2821 5.04425 11.4831 5.97033 10.724 6.99622C9.43416 7.12931 8.2128 7.33449 7.09417 7.60621C6.9629 7.05168 6.86588 6.51378 6.79739 5.99806C6.52915 3.87972 6.86017 2.23275 7.63066 1.79466C7.80188 1.69485 8.02446 1.65048 8.287 1.65048V0.413866C7.80758 0.413866 7.37383 0.513682 6.99715 0.724407C5.3934 1.62276 5.03384 4.42317 5.86139 7.93894C2.31146 9.00365 0 10.7061 0 12.5028C0 14.305 2.32287 16.013 5.88422 17.0722C5.06237 20.599 5.42764 23.405 7.0371 24.3033C7.40807 24.5141 7.84183 24.6139 8.32124 24.6139C9.89075 24.6139 11.9454 23.527 14.0228 21.6416C16.1003 23.5159 18.1549 24.5917 19.7244 24.5917C20.2038 24.5917 20.6376 24.4919 21.0143 24.2812C22.618 23.3828 22.9776 20.5824 22.15 17.0666C25.6885 16.0075 28 14.2995 28 12.5028ZM20.5691 8.80402C20.3579 9.51937 20.0954 10.2569 19.7986 10.9944C19.5646 10.5508 19.3192 10.1072 19.051 9.66355C18.7884 9.21992 18.5088 8.78738 18.2291 8.36593C19.0395 8.48238 19.8214 8.62656 20.5691 8.80402ZM17.9552 14.7098C17.51 15.4585 17.0534 16.1683 16.5797 16.8282C15.7293 16.9003 14.8675 16.9391 14 16.9391C13.1382 16.9391 12.2764 16.9003 11.4317 16.8337C10.958 16.1738 10.4957 15.4696 10.0506 14.7265C9.6168 14 9.22299 13.2625 8.86343 12.5194C9.21729 11.7763 9.6168 11.0333 10.0448 10.3068C10.49 9.55819 10.9466 8.84838 11.4203 8.18848C12.2707 8.11639 13.1325 8.07757 14 8.07757C14.8618 8.07757 15.7236 8.11639 16.5683 8.18293C17.042 8.84283 17.5043 9.5471 17.9495 10.2902C18.3832 11.0166 18.777 11.7542 19.1366 12.4972C18.777 13.2403 18.3832 13.9834 17.9552 14.7098ZM19.7986 13.9889C20.1068 14.732 20.3693 15.4751 20.5862 16.196C19.8386 16.3734 19.051 16.5232 18.2348 16.6396C18.5145 16.2126 18.7941 15.7745 19.0567 15.3254C19.3192 14.8817 19.5646 14.4326 19.7986 13.9889ZM14.0114 19.9059C13.4806 19.3735 12.9499 18.7801 12.4248 18.1313C12.9384 18.1535 13.4635 18.1702 13.9943 18.1702C14.5308 18.1702 15.0616 18.1591 15.5809 18.1313C15.0673 18.7801 14.5365 19.3735 14.0114 19.9059ZM9.76519 16.6396C8.95475 16.5232 8.17285 16.379 7.42519 16.2015C7.63636 15.4862 7.8989 14.7487 8.19568 14.0111C8.42968 14.4548 8.67509 14.8984 8.94333 15.342C9.21158 15.7856 9.48553 16.2182 9.76519 16.6396ZM13.9829 5.09971C14.5137 5.63206 15.0444 6.22542 15.5695 6.87423C15.0559 6.85204 14.5308 6.83541 14 6.83541C13.4635 6.83541 12.9327 6.8465 12.4134 6.87423C12.927 6.22542 13.4578 5.63206 13.9829 5.09971ZM9.75948 8.36593C9.47982 8.79292 9.20016 9.23101 8.93763 9.68018C8.67509 10.1238 8.42968 10.5674 8.19568 11.0111C7.88748 10.268 7.62495 9.52491 7.40807 8.80402C8.15573 8.63211 8.94334 8.48238 9.75948 8.36593ZM4.59438 15.3087C2.57399 14.4714 1.26702 13.3734 1.26702 12.5028C1.26702 11.6322 2.57399 10.5286 4.59438 9.69682C5.0852 9.49164 5.62169 9.30864 6.1753 9.13674C6.50061 10.2236 6.92866 11.3549 7.45944 12.5139C6.93437 13.6673 6.51203 14.793 6.19242 15.8744C5.6274 15.7025 5.09091 15.5139 4.59438 15.3087ZM7.6649 23.2331C6.88871 22.8005 6.55198 21.1536 6.81451 19.0352C6.87729 18.514 6.98003 17.965 7.10559 17.4049C8.22422 17.6711 9.44558 17.8762 10.7297 18.0093C11.5002 19.0352 12.2992 19.9669 13.104 20.782C11.2434 22.4623 9.49694 23.3828 8.30982 23.3828C8.053 23.3773 7.83612 23.3273 7.6649 23.2331ZM21.2026 19.0075C21.4709 21.1258 21.1398 22.7728 20.3693 23.2109C20.1981 23.3107 19.9755 23.3551 19.713 23.3551C18.5316 23.3551 16.7795 22.4401 14.9189 20.7709C15.7179 19.9558 16.5169 19.0297 17.276 18.0038C18.5658 17.8707 19.7872 17.6655 20.9058 17.3938C21.0371 17.9539 21.1398 18.4918 21.2026 19.0075ZM23.3999 15.3087C22.9091 15.5139 22.3726 15.6969 21.819 15.8688C21.4937 14.7819 21.0656 13.6507 20.5349 12.4917C21.0599 11.3383 21.4823 10.2125 21.8019 9.13119C22.3669 9.3031 22.9034 9.49164 23.4056 9.69682C25.426 10.5342 26.733 11.6322 26.733 12.5028C26.7273 13.3734 25.4203 14.4769 23.3999 15.3087Z" fill="#61DAFB"/>
<path d="M13.9943 15.037C15.4348 15.037 16.6025 13.9024 16.6025 12.5028C16.6025 11.1032 15.4348 9.96854 13.9943 9.96854C12.5538 9.96854 11.3861 11.1032 11.3861 12.5028C11.3861 13.9024 12.5538 15.037 13.9943 15.037Z" fill="#61DAFB"/>
</svg>
