<svg width="28" height="28" viewBox="0 0 28 28" fill="none" xmlns="http://www.w3.org/2000/svg">
<g clip-path="url(#clip0_2_475)">
<path d="M0 14V0H28V28H0" fill="#007ACC"/>
<path d="M6.13901 14.049V15.19H9.77901V25.55H12.362V15.19H16.002V14.07C16.002 13.44 16.002 12.929 15.974 12.915C15.974 12.894 13.755 12.887 11.06 12.887L6.16001 12.908V14.056L6.13901 14.049ZM22.498 12.88C23.212 13.048 23.758 13.37 24.248 13.881C24.507 14.161 24.892 14.651 24.92 14.777C24.92 14.819 23.709 15.638 22.974 16.093C22.946 16.114 22.834 15.995 22.722 15.813C22.358 15.295 21.987 15.071 21.406 15.029C20.566 14.973 20.006 15.414 20.006 16.149C20.006 16.373 20.048 16.499 20.132 16.681C20.321 17.066 20.671 17.297 21.756 17.773C23.758 18.634 24.626 19.201 25.151 20.013C25.746 20.923 25.879 22.351 25.48 23.422C25.032 24.591 23.94 25.382 22.379 25.641C21.889 25.725 20.769 25.711 20.244 25.62C19.124 25.41 18.053 24.85 17.395 24.129C17.136 23.849 16.639 23.1 16.667 23.051L16.933 22.883L17.983 22.274L18.774 21.812L18.956 22.057C19.187 22.421 19.705 22.911 20.006 23.079C20.916 23.548 22.134 23.485 22.736 22.939C22.995 22.701 23.107 22.449 23.107 22.099C23.107 21.777 23.058 21.63 22.897 21.385C22.673 21.077 22.225 20.825 20.965 20.265C19.516 19.649 18.9 19.257 18.326 18.655C17.997 18.291 17.696 17.724 17.556 17.255C17.451 16.849 17.416 15.855 17.514 15.456C17.815 14.056 18.872 13.076 20.384 12.796C20.874 12.698 22.029 12.74 22.512 12.866L22.498 12.88Z" fill="white"/>
</g>
<defs>
<clipPath id="clip0_2_475">
<rect width="28" height="28" fill="white"/>
</clipPath>
</defs>
</svg>
