<svg width="50" height="40" viewBox="0 0 50 40" fill="none" xmlns="http://www.w3.org/2000/svg">
<path d="M21.9162 39.1188L17.3393 37.7908C16.8591 37.6558 16.589 37.1531 16.7241 36.673L26.9658 1.39651C27.1009 0.916349 27.6036 0.646261 28.0838 0.781305L32.6607 2.10924C33.1409 2.24428 33.411 2.74694 33.276 3.2271L23.0342 38.5036C22.8916 38.9837 22.3964 39.2613 21.9162 39.1188ZM13.3627 30.701L16.6265 27.2199C16.9717 26.8523 16.9492 26.2671 16.5665 25.9295L9.76866 19.95L16.5665 13.9706C16.9492 13.633 16.9792 13.0478 16.6265 12.6802L13.3627 9.19904C13.025 8.83892 12.4548 8.81641 12.0871 9.16153L1.27512 19.2898C0.892464 19.6424 0.892464 20.2501 1.27512 20.6027L12.0871 30.7385C12.4548 31.0836 13.025 31.0686 13.3627 30.701ZM37.9129 30.746L48.7249 20.6102C49.1075 20.2576 49.1075 19.6499 48.7249 19.2973L37.9129 9.15403C37.5527 8.81641 36.9825 8.83142 36.6374 9.19154L33.3735 12.6727C33.0283 13.0403 33.0509 13.6255 33.4335 13.9631L40.2313 19.95L33.4335 25.9295C33.0509 26.2671 33.0208 26.8523 33.3735 27.2199L36.6374 30.701C36.975 31.0686 37.5452 31.0837 37.9129 30.746Z" fill="#F8F8F8"/>
</svg>
