<svg width="39" height="40" viewBox="0 0 39 40" fill="none" xmlns="http://www.w3.org/2000/svg">
<path d="M13.1097 23.9511C10.1 24.1447 7.36849 25.2909 5.81859 29.3745C5.64229 29.8403 5.21843 30.1231 4.72405 30.1231C3.89059 30.1231 1.31366 28.0475 0.579224 27.5465C0.579974 33.7237 3.42546 39.1531 10.1825 39.1531C15.8735 39.1531 19.785 35.8698 19.785 30.1374C19.785 29.9041 19.7362 29.6813 19.7122 29.4525L13.1097 23.9511ZM34.9307 0.746887C33.7934 0.746887 32.7273 1.25022 31.9141 1.98084C16.5794 15.678 14.9837 15.9998 14.9837 20.0317C14.9837 21.0594 15.2275 22.0391 15.6386 22.9347L20.4264 26.9239C20.9673 27.0589 21.5247 27.1511 22.1061 27.1511C26.7655 27.1511 29.4662 23.7404 37.9472 7.91354C38.5008 6.83712 38.99 5.67443 38.99 4.46374C38.99 2.29514 37.0395 0.746887 34.9307 0.746887Z" fill="#F8F8F8"/>
</svg>
