<svg width="50" height="38" viewBox="0 0 50 38" fill="none" xmlns="http://www.w3.org/2000/svg">
<path d="M34.8791 29.6995C35.0151 29.7078 35.1617 29.7246 35.3084 29.7246C37.3845 29.7267 39.4628 29.7141 41.5389 29.7351C41.9936 29.7392 42.1296 29.5864 42.1062 29.1572C42.0765 28.5982 42.0999 28.037 42.0999 27.3461C44.4565 29.0546 46.7345 30.7045 49.072 32.4004C46.7515 34.0838 44.4735 35.7357 42.0999 37.4589C42.0999 36.8077 42.0999 36.2696 42.0999 35.7316C42.0999 35.0364 42.0999 35.0343 41.4135 35.0343C28.1386 35.0343 14.8616 35.0343 1.58675 35.0343C0.945 35.0343 0.945 35.0343 0.945 34.3978C0.945 33.0181 0.964126 31.6383 0.934376 30.2606C0.923751 29.8125 1.07038 29.712 1.506 29.7141C8.64388 29.7267 15.7818 29.7371 22.9196 29.7183C26.5789 29.7078 29.4667 28.215 31.3771 25.1079C34.8239 19.4966 31.2305 12.1476 24.626 11.2012C19.526 10.4705 14.7851 13.8435 13.9203 18.9543C13.8289 19.4861 13.8225 20.0326 13.7694 20.6733C14.6045 20.5623 15.361 20.4597 16.2174 20.3467C14.8765 22.9011 13.5824 25.3675 12.2691 27.8674C10.2567 25.8239 8.27413 23.8118 6.33613 21.8437C6.82275 21.7642 7.46875 21.672 8.10838 21.5401C8.2295 21.515 8.408 21.3224 8.40375 21.2114C8.36762 19.8735 8.46113 18.5502 8.72675 17.2375C8.73525 17.1977 8.71613 17.1516 8.70338 17.0742C7.40713 16.8564 6.20438 16.3958 5.11425 15.6546C2.4495 13.8372 1.0555 10.4558 1.71 7.37381C2.42188 4.01543 4.99313 1.50503 8.31663 0.885275C10.4714 0.485369 12.4689 0.866433 14.324 1.98868C14.6513 2.18759 14.851 2.2169 15.0656 1.87143C15.191 1.66834 15.3801 1.50503 15.5969 1.25796C15.8668 2.32996 16.1196 3.33287 16.3704 4.33577C16.4554 4.67287 16.5213 5.01624 16.6211 5.34915C16.7295 5.70928 16.619 5.8705 16.2322 5.84537C15.1145 5.77 13.9946 5.70299 12.8769 5.62971C12.6006 5.61087 12.3265 5.58156 11.9716 5.54806C12.2479 5.20468 12.4986 4.8969 12.7728 4.55981C12.1693 4.10756 11.5041 3.88143 10.8114 3.77046C7.46238 3.23028 4.51075 5.76581 4.57875 9.10534C4.62975 11.6681 6.82275 13.9587 9.41313 14.1764C9.74888 14.2036 9.86575 14.0361 9.99538 13.7891C11.8314 10.3176 14.596 7.86375 18.3572 6.58656C27.0591 3.63018 36.1435 8.92737 37.8201 17.5976C38.6468 21.8667 37.7054 25.7653 35.0768 29.2598C35.0045 29.3561 34.9386 29.4587 34.8749 29.5613C34.8621 29.5801 34.8791 29.6178 34.8897 29.6974L34.8791 29.6995Z" fill="#F8F8F8"/>
</svg>
